<svg width="40" height="50" viewBox="0 0 40 50" fill="none" xmlns="http://www.w3.org/2000/svg">
<path d="M37.6148 22.6786C36.5484 20.2832 35.0227 18.1614 33.0812 16.3785L31.4898 14.9184C31.2547 14.7106 30.8828 14.8035 30.7789 15.0989L30.068 17.1387C29.625 18.4184 28.8102 19.7254 27.6562 21.0106C27.5797 21.0926 27.4922 21.1145 27.432 21.12C27.3719 21.1254 27.2789 21.1145 27.1969 21.0379C27.1203 20.9723 27.082 20.8739 27.0875 20.7754C27.2898 17.4832 26.3055 13.77 24.1508 9.72855C22.368 6.37074 19.8906 3.7512 16.7953 1.92464L14.5367 0.595736C14.2414 0.420736 13.8641 0.650423 13.8805 0.994954L14.0008 3.61995C14.0828 5.4137 13.875 6.99964 13.3828 8.31761C12.7812 9.93089 11.9172 11.4293 10.8125 12.7746C10.0359 13.7153 9.16641 14.5629 8.21484 15.2957C5.9125 17.0621 4.01484 19.3645 2.72969 21.9403C1.43359 24.5434 0.75 27.4582 0.75 30.3785C0.75 32.9598 1.25859 35.459 2.26484 37.816C3.23828 40.0856 4.62734 42.1309 6.39375 43.8809C8.16563 45.6309 10.2219 47.009 12.5133 47.966C14.8867 48.9614 17.4023 49.4645 20 49.4645C22.5977 49.4645 25.1133 48.9614 27.4867 47.9715C29.7781 47.0145 31.8398 45.6418 33.6062 43.8864C35.3781 42.1364 36.7672 40.091 37.7352 37.8215C38.7414 35.4645 39.25 32.9653 39.25 30.384C39.25 27.7153 38.7031 25.1231 37.6148 22.6786Z" fill="#E00034"/>
</svg>
